<?xml version="1.0" encoding="UTF-8"?>
<!-- Created with Inkscape (http://www.inkscape.org/) -->
<svg inkscape:version="1.2.1 (9c6d41e4, 2022-07-14)" sodipodi:docname="Lifty_logo4.svg" version="1.1" viewBox="0 0 538.23 196.04" xmlns="http://www.w3.org/2000/svg" xmlns:inkscape="http://www.inkscape.org/namespaces/inkscape" xmlns:sodipodi="http://sodipodi.sourceforge.net/DTD/sodipodi-0.dtd">
 <defs>
  <clipPath id="clipPath231">
   <g transform="translate(-628.88 -491.46)">
    <path d="m0 1027.6h1027.6v-1027.6h-1027.6z"/>
   </g>
  </clipPath>
  <clipPath id="clipPath237">
   <g transform="translate(-561.11 -498.77)">
    <path d="m0 1027.6h1027.6v-1027.6h-1027.6z"/>
   </g>
  </clipPath>
  <clipPath id="clipPath243">
   <g transform="translate(-447.45 -554.03)">
    <path d="m0 1027.6h1027.6v-1027.6h-1027.6z"/>
   </g>
  </clipPath>
  <clipPath id="clipPath249">
   <g transform="translate(-415.63 -470.54)">
    <path d="m0 1027.6h1027.6v-1027.6h-1027.6z"/>
   </g>
  </clipPath>
  <clipPath id="clipPath255">
   <g transform="translate(-308.89 -469.86)">
    <path d="m0 1027.6h1027.6v-1027.6h-1027.6z"/>
   </g>
  </clipPath>
 </defs>
 <sodipodi:namedview bordercolor="#000000" borderopacity="0.25" inkscape:current-layer="g19" inkscape:cx="296.07659" inkscape:cy="101.59491" inkscape:deskcolor="#d1d1d1" inkscape:pagecheckerboard="0" inkscape:pageopacity="0.0" inkscape:showpageshadow="2" inkscape:window-height="1027" inkscape:window-maximized="1" inkscape:window-width="1920" inkscape:window-x="1680" inkscape:window-y="25" inkscape:zoom="0.17225273" pagecolor="#ffffff" showgrid="false">
  <inkscape:page x="0" y="0" width="538.22559" height="196.03879"/>
 </sodipodi:namedview>
 <g transform="matrix(1.3333 0 0 -1.3333 -390.77 783.06)" inkscape:groupmode="layer" inkscape:label="Page 1">
  <g fill="#800080">
   <g transform="translate(308.89 469.86)" clip-path="url(#clipPath255)">
    <path d="m0 0c-4.877 0-8.732 1.416-11.565 4.252-2.836 2.832-4.252 6.688-4.252 11.564v87.932c1.246 0.226 3.231 0.536 5.952 0.936 2.721 0.395 5.328 0.594 7.824 0.594 2.606 0 4.902-0.199 6.888-0.594 1.982-0.4 3.657-1.106 5.017-2.126 1.361-1.021 2.381-2.44 3.062-4.252 0.679-1.816 1.02-4.197 1.02-7.144v-67.182h38.949c0.792-1.249 1.53-2.919 2.21-5.017 0.68-2.099 1.021-4.281 1.021-6.548 0-4.536-0.965-7.738-2.892-9.609-1.929-1.871-4.48-2.806-7.653-2.806z" fill="#800080"/>
   </g>
   <g transform="translate(415.63 470.54)" clip-path="url(#clipPath249)">
    <path d="m0 0c-1.249-0.226-3.091-0.537-5.527-0.936-2.44-0.395-4.907-0.594-7.399-0.594-2.495 0-4.735 0.17-6.718 0.509-1.985 0.341-3.657 1.021-5.017 2.042-1.361 1.02-2.41 2.408-3.147 4.166-0.739 1.757-1.105 4.053-1.105 6.889v62.222c1.246 0.225 3.088 0.537 5.527 0.935 2.437 0.397 4.904 0.596 7.399 0.596 2.492 0 4.733-0.171 6.717-0.511 1.983-0.339 3.658-1.02 5.018-2.041 1.36-1.02 2.407-2.41 3.147-4.167 0.736-1.758 1.105-4.054 1.105-6.887zm-30.274 101.45c0 4.308 1.446 7.936 4.337 10.885 2.891 2.947 6.718 4.422 11.48 4.422 4.763 0 8.59-1.475 11.48-4.422 2.892-2.949 4.337-6.577 4.337-10.885 0-4.31-1.445-7.937-4.337-10.885-2.89-2.95-6.717-4.421-11.48-4.421-4.762 0-8.589 1.471-11.48 4.421-2.891 2.948-4.337 6.575-4.337 10.885" fill="#800080"/>
   </g>
   <g transform="translate(447.45 554.03)" clip-path="url(#clipPath243)">
    <path d="m0 0c0 5.783 0.991 10.742 2.977 14.882 1.982 4.138 4.677 7.54 8.079 10.205 3.401 2.663 7.398 4.619 11.99 5.868 4.593 1.246 9.495 1.87 14.712 1.87 8.389 0 14.568-1.105 18.539-3.316 3.967-2.211 5.952-5.982 5.952-11.311 0-2.268-0.483-4.309-1.445-6.122-0.965-1.815-2.015-3.176-3.147-4.082-2.155 0.566-4.395 1.047-6.718 1.445-2.326 0.397-5.017 0.596-8.079 0.596-4.877 0-8.673-0.824-11.395-2.467-2.721-1.644-4.082-4.506-4.082-8.589v-6.442h27.893c0.68-1.249 1.331-2.806 1.955-4.677 0.623-1.871 0.936-3.941 0.936-6.208 0-3.97-0.879-6.832-2.636-8.589-1.76-1.759-4.111-2.636-7.058-2.636h-19.559v-53.915c-1.135-0.34-2.921-0.68-5.357-1.021-2.44-0.34-4.962-0.51-7.569-0.51-2.496 0-4.736 0.17-6.718 0.51-1.986 0.341-3.657 1.021-5.018 2.041-1.36 1.021-2.41 2.408-3.147 4.167-0.738 1.757-1.105 4.053-1.105 6.889z" fill="#800080"/>
   </g>
   <g transform="translate(561.11 498.77)" clip-path="url(#clipPath237)">
    <path d="m0 0c0-2.95 0.936-5.047 2.805-6.293 1.871-1.249 4.507-1.871 7.91-1.871 1.699 0 3.457 0.141 5.271 0.426 1.813 0.281 3.403 0.65 4.762 1.105 1.022-1.249 1.898-2.637 2.637-4.167 0.736-1.531 1.105-3.375 1.105-5.528 0-4.31-1.615-7.823-4.847-10.545-3.231-2.721-8.928-4.081-17.092-4.081-9.979 0-17.662 2.269-23.047 6.803-5.387 4.533-8.078 11.905-8.078 22.11v76.794c1.246 0.34 3.033 0.707 5.357 1.105 2.322 0.396 4.789 0.595 7.399 0.595 4.988 0 8.871-0.879 11.65-2.636 2.777-1.758 4.168-5.471 4.168-11.14v-14.885h22.279c0.68-1.249 1.332-2.806 1.957-4.677 0.621-1.871 0.934-3.941 0.934-6.208 0-3.97-0.879-6.832-2.635-8.589-1.76-1.759-4.111-2.636-7.058-2.636h-15.477z" fill="#800080"/>
   </g>
   <g transform="translate(628.88 491.46)" clip-path="url(#clipPath231)">
    <path d="m0 0c-1.249 2.833-2.581 6.009-3.997 9.524-1.419 3.513-2.892 7.539-4.422 12.076-1.531 4.534-3.12 9.721-4.763 15.562-1.644 5.839-3.375 12.557-5.187 20.154 1.587 1.587 3.713 2.977 6.378 4.167 2.663 1.191 5.584 1.787 8.76 1.787 3.966 0 7.254-0.825 9.864-2.466 2.606-1.646 4.533-4.737 5.782-9.27l13.437-46.772h0.68c1.361 3.853 2.692 8.05 3.996 12.586 1.303 4.534 2.578 9.211 3.827 14.032 1.247 4.817 2.408 9.636 3.487 14.456 1.076 4.818 2.012 9.552 2.806 14.202 4.082 2.152 8.56 3.232 13.437 3.232 3.967 0 7.255-0.851 9.864-2.551 2.608-1.701 3.912-4.652 3.912-8.845 0-3.061-0.399-6.606-1.19-10.63-0.795-4.026-1.845-8.307-3.147-12.841-1.305-4.536-2.836-9.214-4.592-14.032-1.759-4.82-3.601-9.553-5.528-14.201-1.929-4.65-3.912-9.043-5.953-13.181-2.041-4.14-4.025-7.853-5.952-11.14-3.176-5.554-6.123-10.091-8.845-13.607-2.72-3.513-5.33-6.263-7.823-8.249-2.495-1.982-4.991-3.343-7.483-4.081-2.495-0.736-5.103-1.105-7.824-1.105-4.762 0-8.618 1.419-11.565 4.252-2.95 2.835-4.707 6.521-5.272 11.054 3.626 2.836 7.254 5.983 10.884 9.44 3.627 3.46 6.915 7 9.865 10.63-1.929 0.566-3.998 1.897-6.208 3.997-2.211 2.096-4.622 6.037-7.228 11.82" fill="#800080"/>
   </g>
  </g>
 </g>
</svg>
